<?xml version="1.0" encoding="UTF-8"?>
<svg id="Layer_1" xmlns="http://www.w3.org/2000/svg" version="1.1" viewBox="0 0 348 348">
  <!-- Generator: Adobe Illustrator 29.8.1, SVG Export Plug-In . SVG Version: 2.1.1 Build 2)  -->
  <defs>
    <style>
      .st0 {
        fill: #fff;
      }
    </style>
  </defs>
  <path class="st0" d="M221,212v-12c-7.16,2.14-16.63,3.09-24.05,1.55-3.87-.8-18.97-8.5-17.83-12.86,1.07-4.08,21.91-19.37,23.41-23.76,1.18-3.46-4.62-7.03-6.5-9.44l4.98-5.03c2.13-.91,7.12,9.4,10.98,6.04l25.38-24.43c12.22,12.57,14.46,34.82,4.84,49.62-2.4,3.69-6.26,5.68-7.83,9.8l8.11,19.54,9.53.97v9.01h-45v-9h14-.02,0ZM191.05,189.95c25.92,12.41,52.95-9.17,47.85-37.35-.43-2.39-2.21-10.93-5.42-7.62l-41.53,41.47-.9,3.5h0Z"/>
  <path class="st0" d="M182,291h-13v-26h-20v26h-13v-63.5l1.5-1.5h43l1.5,1.5v63.5ZM169,252c-.58-4.15,1.5-9.82-1.5-13h-18.5v13h20Z"/>
  <path class="st0" d="M126,291h-12v-46.5l-2-1.01-13.47,13.49-14.53-13.98v48h-13v-64h16.5c.83,0,7.87,11.76,11.05,12.05,4.89.44,9.22-11.69,13.15-12.84,2.89-.85,11.94-.85,14.29,1.29v63.5h0Z"/>
  <path class="st0" d="M277,291h-38v-12h25v-14h-25v-37.5l1.5-1.5h35c2.21,1.35,2.02,10.69,1.06,12.06l-24.63,1.37c-1.46,1.02-1.83,10.96.56,12.56h23l1.5,1.5v37.5h.01Z"/>
  <path class="st0" d="M113.5,39.02l20.52,19.49c3.99,2,5.9-2.34,8.48-4.49,1.53,2.3,9.37,7.43,8.06,9.97-1.19,2.31-5.81,3.22-4.09,6.99,1.41,3.09,19.51,18.11,19.51,19.52l-10.48,10.48-15.43-15.62,4.85-6c-5-11.31-10.55,3.43-14.95,5.18-2.07.82-4.76-2.02-7.07.88-3.56,4.46,3.41,6.74,3.02,8.95-4.07,5.33-5.15,5.74-10.43,1.59l-5,3.09c-8.69-3.78-1.09-5.78-1.45-9.49l-3.99-5.18,5.43-6.35c8.24,8.78,7.17,2.27,10.47-2.55,2.66-3.89,12.56-8.36,7.1-13.03-3.74-3.2-4.78,0-7.56,2.55l-16.48-16.48,9.48-9.48v-.02h0Z"/>
  <path class="st0" d="M217,239v52h-12v-50.5c-2.6-3.54-13.68.27-15.56-2.44l-.3-10.42,2.36-1.64,39.57.44c1.53,1.06,1.48,11.1,0,12.13l-14.06.44h-.01Z"/>
  <path class="st0" d="M155,156.01l-6.58-.94c.65-23.66,17.29-44.3,39.81-51.33,7.26-2.26,14.93-5.75,10.82,5.82-24.65,1.65-43.04,22.1-44.06,46.45h.01Z"/>
  <path class="st0" d="M198.53,118.17c5.67,10.56-3.03,7.99-9.22,10.64-10.51,4.49-16.44,15.26-17.79,26.21-9.96,4.16-7.52-3.89-5.3-10.3,5.01-14.43,17.64-23.52,32.31-26.55h0Z"/>
  <path class="st0" d="M199.88,142.99c-7.07.77-11.17,6.24-11.97,13.01l-6.91.1c-.51-6.09,4.21-13.01,9.07-16.44,5.49-3.87,11.49-6.31,9.82,3.33h-.01Z"/>
</svg>