<?xml version="1.0" encoding="UTF-8" standalone="no"?>
<!DOCTYPE svg PUBLIC "-//W3C//DTD SVG 1.1//EN" "http://www.w3.org/Graphics/SVG/1.1/DTD/svg11.dtd">
<!-- Generated by Microsoft Visio, SVG Export System Diagram.svg Page-1 -->
<svg xmlns="http://www.w3.org/2000/svg" xmlns:xlink="http://www.w3.org/1999/xlink" xmlns:ev="http://www.w3.org/2001/xml-events"
		xmlns:v="http://schemas.microsoft.com/visio/2003/SVGExtensions/" width="11in" height="8.5in" viewBox="0 0 792 612"
		xml:space="preserve" color-interpolation-filters="sRGB" class="st25">
	<v:documentProperties v:langID="1033" v:viewMarkup="false">
		<v:userDefs>
			<v:ud v:nameU="msvSubprocessMaster" v:prompt="" v:val="VT4(Rectangle)"/>
			<v:ud v:nameU="msvNoAutoConnect" v:val="VT0(1):26"/>
		</v:userDefs>
	</v:documentProperties>

	<style type="text/css">
	<![CDATA[
		.st1 {fill:none;stroke:#c7c8c8;stroke-dasharray:7,5;stroke-width:1}
		.st2 {fill:none;stroke:none;stroke-width:0.25}
		.st3 {fill:#4672c4;font-family:Calibri;font-size:1.00001em}
		.st4 {fill:none;stroke:#c7c8c8;stroke-width:0.25}
		.st5 {fill:#4672c4;font-family:Calibri;font-size:0.833336em}
		.st6 {baseline-shift:33.3489%;font-size:0.666978em}
		.st7 {font-size:1em}
		.st8 {marker-end:url(#mrkr4-47);stroke:#c00000;stroke-linecap:round;stroke-linejoin:round;stroke-width:1}
		.st9 {fill:#c00000;fill-opacity:1;stroke:#c00000;stroke-opacity:1;stroke-width:0.28409090909091}
		.st10 {marker-end:url(#mrkr4-58);stroke:#000000;stroke-linecap:round;stroke-linejoin:round;stroke-width:1}
		.st11 {fill:#000000;fill-opacity:1;stroke:#000000;stroke-opacity:1;stroke-width:0.28409090909091}
		.st12 {fill:none;stroke:#c7c8c8;stroke-width:1}
		.st13 {marker-end:url(#mrkr5-109);marker-start:url(#mrkr5-107);stroke:#000000;stroke-linecap:round;stroke-linejoin:round;stroke-width:0.75}
		.st14 {fill:#000000;fill-opacity:1;stroke:#000000;stroke-opacity:1;stroke-width:0.22935779816514}
		.st15 {fill:#ffffff;stroke:none;stroke-linecap:butt;stroke-width:7.2}
		.st16 {fill:#3c63ac;font-family:Calibri;font-size:0.666664em}
		.st17 {marker-end:url(#mrkr4-142);stroke:#4672c4;stroke-linecap:round;stroke-linejoin:round;stroke-width:1}
		.st18 {fill:#4672c4;fill-opacity:1;stroke:#4672c4;stroke-opacity:1;stroke-width:0.28409090909091}
		.st19 {baseline-shift:33.3488%;font-size:0.666976em}
		.st20 {marker-end:url(#mrkr5-169);marker-start:url(#mrkr5-167);stroke:#4672c4;stroke-linecap:round;stroke-linejoin:round;stroke-width:1}
		.st21 {fill:none;stroke:#c7c8c8;stroke-width:1.5}
		.st22 {fill:#000000;font-family:Calibri;font-size:0.833336em}
		.st23 {marker-start:url(#mrkr10-226);stroke:#ed7d31;stroke-linecap:round;stroke-linejoin:round;stroke-width:1}
		.st24 {fill:#ed7d31;fill-opacity:1;stroke:#ed7d31;stroke-opacity:1;stroke-width:0.28409090909091}
		.st25 {fill:none;fill-rule:evenodd;font-size:12px;overflow:visible;stroke-linecap:square;stroke-miterlimit:3}
	]]>
	</style>

	<defs id="Markers">
		<g id="lend4">
			<path d="M 2 1 L 0 0 L 2 -1 L 2 1 " style="stroke:none"/>
		</g>
		<marker id="mrkr4-47" class="st9" v:arrowType="4" v:arrowSize="2" v:setback="7.04" refX="-7.04" orient="auto"
				markerUnits="strokeWidth" overflow="visible">
			<use xlink:href="#lend4" transform="scale(-3.52,-3.52) "/>
		</marker>
		<marker id="mrkr4-58" class="st11" v:arrowType="4" v:arrowSize="2" v:setback="7.04" refX="-7.04" orient="auto"
				markerUnits="strokeWidth" overflow="visible">
			<use xlink:href="#lend4" transform="scale(-3.52,-3.52) "/>
		</marker>
		<g id="lend5">
			<path d="M 2 1 L 0 0 L 1.98117 -0.993387 C 1.67173 -0.364515 1.67301 0.372641 1.98465 1.00043 " style="stroke:none"/>
		</g>
		<marker id="mrkr5-107" class="st14" v:arrowType="5" v:arrowSize="2" v:setback="7.15" refX="7.15" orient="auto"
				markerUnits="strokeWidth" overflow="visible">
			<use xlink:href="#lend5" transform="scale(4.36) "/>
		</marker>
		<marker id="mrkr5-109" class="st14" v:arrowType="5" v:arrowSize="2" v:setback="7.63" refX="-7.63" orient="auto"
				markerUnits="strokeWidth" overflow="visible">
			<use xlink:href="#lend5" transform="scale(-4.36,-4.36) "/>
		</marker>
		<marker id="mrkr4-142" class="st18" v:arrowType="4" v:arrowSize="2" v:setback="7.04" refX="-7.04" orient="auto"
				markerUnits="strokeWidth" overflow="visible">
			<use xlink:href="#lend4" transform="scale(-3.52,-3.52) "/>
		</marker>
		<marker id="mrkr5-167" class="st18" v:arrowType="5" v:arrowSize="2" v:setback="5.8" refX="5.8" orient="auto"
				markerUnits="strokeWidth" overflow="visible">
			<use xlink:href="#lend5" transform="scale(3.52) "/>
		</marker>
		<marker id="mrkr5-169" class="st18" v:arrowType="5" v:arrowSize="2" v:setback="6.16" refX="-6.16" orient="auto"
				markerUnits="strokeWidth" overflow="visible">
			<use xlink:href="#lend5" transform="scale(-3.52,-3.52) "/>
		</marker>
		<g id="lend10">
			<path
					d="M 0 0.75 C -0.414214 0.75 -0.75 0.414214 -0.75 0 -0.75 -0.414214 -0.414214 -0.75 0 -0.75 0.414214 -0.75 0.75 -0.414214 0.75 0 0.75 0.414214 0.414214 0.75 0 0.75 Z "
					style="stroke:none"/>
		</g>
		<marker id="mrkr10-226" class="st24" v:arrowType="10" v:arrowSize="2" v:setback="2.28" refX="2.28" orient="auto"
				markerUnits="strokeWidth" overflow="visible">
			<use xlink:href="#lend10" transform="scale(3.52) "/>
		</marker>
	</defs>
	<g v:mID="0" v:index="1" v:groupContext="foregroundPage">
		<v:userDefs>
			<v:ud v:nameU="msvThemeOrder" v:val="VT0(0):26"/>
		</v:userDefs>
		<title>Page-1</title>
		<v:pageProperties v:drawingScale="1" v:pageScale="1" v:drawingUnits="0" v:shadowOffsetX="9" v:shadowOffsetY="-9"/>
		<v:layer v:name="Connector" v:index="0"/>
		<v:layer v:name="Flow Equipment" v:index="1"/>
		<g id="group17-1" transform="translate(18,-236.25)" v:mID="17" v:groupContext="group">
			<title>Sheet.17</title>
			<g id="shape1-2" v:mID="1" v:groupContext="shape" transform="translate(35.4876,0)">
				<title>Rectangle</title>
				<v:userDefs>
					<v:ud v:nameU="visVersion" v:val="VT0(15):26"/>
				</v:userDefs>
				<path d="M0 612 L194.01 612 L194.01 461.25 L0 461.25 L0 612 Z" class="st1"/>
			</g>
			<g id="shape2-4" v:mID="2" v:groupContext="shape" transform="translate(11.1609,-135)">
				<title>Sheet.2</title>
				<desc>User Interface</desc>
				<v:textBlock v:margins="rect(4,4,4,4)"/>
				<v:textRect cx="61.9196" cy="605.25" width="123.84" height="13.5"/>
				<rect x="0" y="598.5" width="123.839" height="13.5" class="st2"/>
				<text x="27.31" y="608.85" class="st3" v:langID="1033"><v:paragraph v:horizAlign="1"/><v:tabList/>User Interface</text>			</g>
		</g>
		<g id="group62-7" transform="translate(522,-125.11)" v:mID="62" v:groupContext="group">
			<title>Sheet.62</title>
			<g id="shape28-8" v:mID="28" v:groupContext="shape">
				<title>Rectangle</title>
				<v:userDefs>
					<v:ud v:nameU="visVersion" v:val="VT0(15):26"/>
				</v:userDefs>
				<path d="M0 612 L234 612 L234 386.11 L0 386.11 L0 612 Z" class="st1"/>
			</g>
			<g id="group37-10" transform="translate(7.3125,-150.375)" v:mID="37" v:groupContext="group">
				<title>Sheet.37</title>
				<g id="shape29-11" v:mID="29" v:groupContext="shape">
					<title>Rectangle.29</title>
					<v:userDefs>
						<v:ud v:nameU="visVersion" v:val="VT0(15):26"/>
					</v:userDefs>
					<rect x="0" y="550.875" width="91.6875" height="61.125" class="st4"/>
				</g>
				<g id="shape34-13" v:mID="34" v:groupContext="shape" transform="translate(2.25,-21.5625)">
					<title>Sheet.34</title>
					<desc>Voltage Converter</desc>
					<v:textBlock v:margins="rect(4,4,4,4)"/>
					<v:textRect cx="43.5938" cy="603" width="87.19" height="18"/>
					<rect x="0" y="594" width="87.1875" height="18" class="st2"/>
					<text x="6.61" y="606" class="st5" v:langID="1033"><v:paragraph v:horizAlign="1"/><v:tabList/>Voltage Converter</text>				</g>
			</g>
			<g id="group38-16" transform="translate(7.3125,-81.9375)" v:mID="38" v:groupContext="group">
				<title>Sheet.38</title>
				<g id="shape39-17" v:mID="39" v:groupContext="shape">
					<title>Rectangle.29</title>
					<v:userDefs>
						<v:ud v:nameU="visVersion" v:val="VT0(15):26"/>
					</v:userDefs>
					<rect x="0" y="550.875" width="91.6875" height="61.125" class="st4"/>
				</g>
				<g id="shape40-19" v:mID="40" v:groupContext="shape" transform="translate(2.25,-21.5625)">
					<title>Sheet.40</title>
					<desc>Azimuth Motor</desc>
					<v:textBlock v:margins="rect(4,4,4,4)"/>
					<v:textRect cx="43.5938" cy="603" width="87.19" height="18"/>
					<rect x="0" y="594" width="87.1875" height="18" class="st2"/>
					<text x="12.56" y="606" class="st5" v:langID="1033"><v:paragraph v:horizAlign="1"/><v:tabList/>Azimuth Motor</text>				</g>
			</g>
			<g id="group41-22" transform="translate(7.3125,-13.5)" v:mID="41" v:groupContext="group">
				<title>Sheet.41</title>
				<g id="shape42-23" v:mID="42" v:groupContext="shape">
					<title>Rectangle.29</title>
					<v:userDefs>
						<v:ud v:nameU="visVersion" v:val="VT0(15):26"/>
					</v:userDefs>
					<rect x="0" y="550.875" width="91.6875" height="61.125" class="st4"/>
				</g>
				<g id="shape43-25" v:mID="43" v:groupContext="shape" transform="translate(2.25,-21.5625)">
					<title>Sheet.43</title>
					<desc>Elevation Motor</desc>
					<v:textBlock v:margins="rect(4,4,4,4)"/>
					<v:textRect cx="43.5938" cy="603" width="87.19" height="18"/>
					<rect x="0" y="594" width="87.1875" height="18" class="st2"/>
					<text x="10.68" y="606" class="st5" v:langID="1033"><v:paragraph v:horizAlign="1"/><v:tabList/>Elevation Motor  </text>				</g>
			</g>
			<g id="group44-28" transform="translate(130.5,-150.375)" v:mID="44" v:groupContext="group">
				<title>Sheet.44</title>
				<g id="shape45-29" v:mID="45" v:groupContext="shape">
					<title>Rectangle.29</title>
					<v:userDefs>
						<v:ud v:nameU="visVersion" v:val="VT0(15):26"/>
					</v:userDefs>
					<rect x="0" y="550.875" width="91.6875" height="61.125" class="st4"/>
				</g>
				<g id="shape46-31" v:mID="46" v:groupContext="shape" transform="translate(2.25,-21.5625)">
					<title>Sheet.46</title>
					<desc>I2C Decoder</desc>
					<v:textBlock v:margins="rect(4,4,4,4)"/>
					<v:textRect cx="43.5938" cy="603" width="87.19" height="18"/>
					<rect x="0" y="594" width="87.1875" height="18" class="st2"/>
					<text x="19.67" y="606" class="st5" v:langID="1033"><v:paragraph v:horizAlign="1"/><v:tabList/>I<tspan
								dy="0.049em" class="st6" v:baseFontSize="10">2</tspan><tspan dy="-0.033em" class="st7">C Decoder</tspan></text>				</g>
			</g>
			<g id="group47-36" transform="translate(130.5,-36)" v:mID="47" v:groupContext="group">
				<title>Sheet.47</title>
				<g id="shape48-37" v:mID="48" v:groupContext="shape">
					<title>Rectangle.29</title>
					<v:userDefs>
						<v:ud v:nameU="visVersion" v:val="VT0(15):26"/>
					</v:userDefs>
					<rect x="0" y="550.875" width="91.6875" height="61.125" class="st4"/>
				</g>
				<g id="shape49-39" v:mID="49" v:groupContext="shape" transform="translate(2.25,-21.5625)">
					<title>Sheet.49</title>
					<desc>Motor Controller</desc>
					<v:textBlock v:margins="rect(4,4,4,4)"/>
					<v:textRect cx="43.5938" cy="603" width="87.19" height="18"/>
					<rect x="0" y="594" width="87.1875" height="18" class="st2"/>
					<text x="8.99" y="606" class="st5" v:langID="1033"><v:paragraph v:horizAlign="1"/><v:tabList/>Motor Controller</text>				</g>
			</g>
			<g id="shape54-42" v:mID="54" v:groupContext="shape" v:layerMember="0" transform="translate(108,-180.938)">
				<title>Dynamic connector</title>
				<path d="M-9 612 L4.5 612 L4.5 748.88 L-1.96 748.88" class="st8"/>
			</g>
			<g id="shape55-48" v:mID="55" v:groupContext="shape" v:layerMember="0" transform="translate(114.75,-103.5)">
				<title>Dynamic connector.55</title>
				<path d="M-2.25 603 L-8.71 603" class="st8"/>
			</g>
			<g id="shape56-53" v:mID="56" v:groupContext="shape" v:layerMember="0" transform="translate(167.344,-150.375)">
				<title>Dynamic connector.56</title>
				<path d="M9 612 L9 658.21" class="st10"/>
			</g>
			<g id="shape60-59" v:mID="60" v:groupContext="shape" v:layerMember="0" transform="translate(130.5,-66.5625)">
				<title>Dynamic connector.60</title>
				<path d="M0 612 L-13.5 612 L-13.5 581.31 L-15 581.31 A3 3 -180 0 0 -21 581.31 L-24.46 581.31" class="st10"/>
			</g>
			<g id="shape61-64" v:mID="61" v:groupContext="shape" v:layerMember="0" transform="translate(130.5,-67.5937)">
				<title>Dynamic connector.61</title>
				<path d="M0 613.03 L-13.5 613.03 L-13.5 628.97 L-15 628.97 A3 3 -180 0 0 -21 628.97 L-24.46 628.97" class="st10"/>
			</g>
		</g>
		<g id="group63-69" transform="translate(265.5,-50.625)" v:mID="63" v:groupContext="group">
			<title>Sheet.63</title>
			<g id="group64-70" v:mID="64" v:groupContext="group">
				<title>Sheet.64</title>
				<g id="shape65-71" v:mID="65" v:groupContext="shape" transform="translate(35.4876,0)">
					<title>Rectangle</title>
					<v:userDefs>
						<v:ud v:nameU="visVersion" v:val="VT0(15):26"/>
					</v:userDefs>
					<path d="M0 612 L194.01 612 L194.01 461.25 L0 461.25 L0 612 Z" class="st1"/>
				</g>
				<g id="shape66-73" v:mID="66" v:groupContext="shape" transform="translate(0,-137.25)">
					<title>Sheet.66</title>
					<desc>Reciever</desc>
					<v:textBlock v:margins="rect(4,4,4,4)"/>
					<v:textRect cx="61.9196" cy="605.25" width="123.84" height="13.5"/>
					<rect x="0" y="598.5" width="123.839" height="13.5" class="st2"/>
					<text x="40.99" y="608.85" class="st3" v:langID="1033"><v:paragraph v:horizAlign="1"/><v:tabList/>Reciever</text>				</g>
				<g id="group67-76" transform="translate(43.1733,-85.5)" v:mID="67" v:groupContext="group">
					<title>Sheet.67</title>
					<g id="shape68-77" v:mID="68" v:groupContext="shape">
						<title>Rectangle.3</title>
						<v:userDefs>
							<v:ud v:nameU="visVersion" v:val="VT0(15):26"/>
						</v:userDefs>
						<rect x="0" y="562.5" width="74.9851" height="49.5" class="st12"/>
					</g>
					<g id="shape69-79" v:mID="69" v:groupContext="shape" transform="translate(14.7698,-20.25)">
						<title>Sheet.69</title>
						<desc>SDR</desc>
						<v:textBlock v:margins="rect(4,4,4,4)"/>
						<v:textRect cx="22.7228" cy="607.5" width="45.45" height="9"/>
						<rect x="0" y="603" width="45.4455" height="9" class="st2"/>
						<text x="13.02" y="611.1" class="st3" v:langID="1033"><v:paragraph v:horizAlign="1"/><v:tabList/>SDR</text>					</g>
				</g>
				<g id="group70-82" transform="translate(145.426,-11.25)" v:mID="70" v:groupContext="group">
					<title>Sheet.70</title>
					<g id="shape71-83" v:mID="71" v:groupContext="shape">
						<title>Rectangle.7</title>
						<v:userDefs>
							<v:ud v:nameU="visVersion" v:val="VT0(15):26"/>
						</v:userDefs>
						<rect x="0" y="562.5" width="74.9851" height="49.5" class="st12"/>
					</g>
					<g id="shape72-85" v:mID="72" v:groupContext="shape" transform="translate(11.3614,-18)">
						<title>Sheet.72</title>
						<desc>Software Stack</desc>
						<v:textBlock v:margins="rect(4,4,4,4)"/>
						<v:textRect cx="28.4035" cy="605.25" width="56.81" height="13.5"/>
						<rect x="0" y="598.5" width="56.8069" height="13.5" class="st2"/>
						<text x="6.4" y="601.65" class="st3" v:langID="1033"><v:paragraph v:horizAlign="1"/><v:tabList/>Software <tspan
									x="15.5" dy="1.2em" class="st7">Stack</tspan></text>					</g>
				</g>
				<g id="group73-89" transform="translate(145.426,-85.5)" v:mID="73" v:groupContext="group">
					<title>Sheet.73</title>
					<g id="shape74-90" v:mID="74" v:groupContext="shape">
						<title>Rectangle.5</title>
						<v:userDefs>
							<v:ud v:nameU="visVersion" v:val="VT0(15):26"/>
						</v:userDefs>
						<rect x="0" y="562.5" width="74.9851" height="49.5" class="st12"/>
					</g>
					<g id="shape75-92" v:mID="75" v:groupContext="shape" transform="translate(11.3614,-18)">
						<title>Sheet.75</title>
						<desc>Pi 5</desc>
						<v:textBlock v:margins="rect(4,4,4,4)"/>
						<v:textRect cx="26.1312" cy="605.25" width="52.27" height="13.5"/>
						<rect x="0" y="598.5" width="52.2624" height="13.5" class="st2"/>
						<text x="17.26" y="608.85" class="st3" v:langID="1033"><v:paragraph v:horizAlign="1"/><v:tabList/>Pi 5</text>					</g>
				</g>
				<g id="group76-95" transform="translate(43.1733,-11.25)" v:mID="76" v:groupContext="group">
					<title>Sheet.76</title>
					<g id="shape77-96" v:mID="77" v:groupContext="shape">
						<title>Rectangle.6</title>
						<v:userDefs>
							<v:ud v:nameU="visVersion" v:val="VT0(15):26"/>
						</v:userDefs>
						<rect x="0" y="562.5" width="74.9851" height="49.5" class="st12"/>
					</g>
					<g id="shape78-98" v:mID="78" v:groupContext="shape" transform="translate(11.3614,-18)">
						<title>Sheet.78</title>
						<desc>GPS</desc>
						<v:textBlock v:margins="rect(4,4,4,4)"/>
						<v:textRect cx="26.1312" cy="605.25" width="52.27" height="13.5"/>
						<rect x="0" y="598.5" width="52.2624" height="13.5" class="st2"/>
						<text x="16.49" y="608.85" class="st3" v:langID="1033"><v:paragraph v:horizAlign="1"/><v:tabList/>GPS</text>					</g>
				</g>
			</g>
			<g id="shape79-101" v:mID="79" v:groupContext="shape" v:layerMember="0" transform="translate(118.158,-101.25)">
				<title>Dynamic connector</title>
				<desc>USB</desc>
				<v:textBlock v:margins="rect(4,4,4,4)"/>
				<v:textRect cx="14.5916" cy="596.25" width="40" height="17.6036"/>
				<path d="M5.36 603 L5.72 603 L21.54 603" class="st13"/>
				<rect v:rectContext="textBkgnd" x="8.01166" y="591.45" width="13.16" height="9.59985" class="st15"/>
				<text x="8.01" y="598.65" class="st16" v:langID="1033"><v:paragraph v:horizAlign="1"/><v:tabList/>USB</text>			</g>
			<g id="shape80-112" v:mID="80" v:groupContext="shape" v:layerMember="0" transform="translate(173.918,-60.75)">
				<title>Dynamic connector.20</title>
				<desc>Internal (OS)</desc>
				<v:textBlock v:margins="rect(4,4,4,4)"/>
				<v:textRect cx="33.0817" cy="600.75" width="50.99" height="17.6036"/>
				<path d="M9 612 L9 594.29" class="st10"/>
				<rect v:rectContext="textBkgnd" x="12.496" y="595.95" width="41.1715" height="9.59985" class="st15"/>
				<text x="12.5" y="603.15" class="st16" v:langID="1033"><v:paragraph v:horizAlign="1"/><v:tabList/>Internal (OS)</text>			</g>
			<g id="shape81-119" v:mID="81" v:groupContext="shape" v:layerMember="0" transform="translate(118.158,-36)">
				<title>Dynamic connector.21</title>
				<path d="M0 612 L13.5 612 L13.5 537.75 L20.23 537.75" class="st10"/>
			</g>
		</g>
		<g id="shape101-124" v:mID="101" v:groupContext="shape" transform="translate(486,-337.5)">
			<title>Sheet.101</title>
			<desc>Rotator</desc>
			<v:textBlock v:margins="rect(4,4,4,4)"/>
			<v:textRect cx="61.9196" cy="605.25" width="123.84" height="13.5"/>
			<rect x="0" y="598.5" width="123.839" height="13.5" class="st2"/>
			<text x="43.35" y="608.85" class="st3" v:langID="1033"><v:paragraph v:horizAlign="1"/><v:tabList/>Rotator</text>		</g>
		<g id="group102-127" transform="translate(104.58,-323.745)" v:mID="102" v:groupContext="group">
			<title>Sheet.102</title>
			<desc>LED Indicators</desc>
			<g id="shape103-128" v:mID="103" v:groupContext="shape" transform="translate(19.1493,0)">
				<title>Rectangle</title>
				<v:userDefs>
					<v:ud v:nameU="visVersion" v:val="VT0(15):26"/>
				</v:userDefs>
				<rect x="0" y="571.245" width="104.69" height="40.7553" class="st12"/>
			</g>
			<g id="shape102-130" v:mID="102" v:groupContext="groupContent">
				<v:textBlock v:margins="rect(4,4,4,4)"/>
				<v:textRect cx="61.9196" cy="591.622" width="123.84" height="40.7553"/>
				<text x="27.2" y="595.22" class="st3" v:langID="1033"><v:paragraph v:horizAlign="1"/><v:tabList/>LED Indicators</text>			</g>
		</g>
		<g id="group111-132" transform="translate(105.661,-254.122)" v:mID="111" v:groupContext="group">
			<title>Sheet.111</title>
			<desc>Touchsreen</desc>
			<g id="shape112-133" v:mID="112" v:groupContext="shape" transform="translate(19.1493,0)">
				<title>Rectangle</title>
				<v:userDefs>
					<v:ud v:nameU="visVersion" v:val="VT0(15):26"/>
				</v:userDefs>
				<rect x="0" y="571.245" width="104.69" height="40.7553" class="st12"/>
			</g>
			<g id="shape111-135" v:mID="111" v:groupContext="groupContent">
				<v:textBlock v:margins="rect(4,4,4,4)"/>
				<v:textRect cx="61.9196" cy="591.622" width="123.84" height="40.7553"/>
				<text x="33.43" y="595.22" class="st3" v:langID="1033"><v:paragraph v:horizAlign="1"/><v:tabList/>Touchsreen</text>			</g>
		</g>
		<g id="shape113-137" v:mID="113" v:groupContext="shape" v:layerMember="0" transform="translate(448.418,-185.625)">
			<title>Dynamic connector</title>
			<desc>HDMI</desc>
			<v:textBlock v:margins="rect(4,4,4,4)"/>
			<v:textRect cx="-95.7308" cy="517.5" width="40" height="17.6036"/>
			<path d="M0 612 L0 523.12 L-47.42 523.12 A3 3 -180 0 0 -53.42 523.12 L-150.25 523.12 A3 3 -180 0 0 -156.25 523.12 L-211.88
						 523.12" class="st17"/>
			<rect v:rectContext="textBkgnd" x="-105.112" y="512.7" width="18.7616" height="9.59985" class="st15"/>
			<text x="-105.11" y="519.9" class="st16" v:langID="1033"><v:paragraph v:horizAlign="1"/><v:tabList/>HDMI</text>		</g>
		<g id="shape114-145" v:mID="114" v:groupContext="shape" v:layerMember="0" transform="translate(448.418,-274.5)">
			<title>Dynamic connector.114</title>
			<desc>GPIO</desc>
			<v:textBlock v:margins="rect(4,4,4,4)"/>
			<v:textRect cx="-82.7933" cy="535.5" width="40" height="17.6036"/>
			<path d="M0 612 L0 542.38 L-47.42 542.38 A3 3 -180 0 0 -53.42 542.38 L-150.25 542.38 A3 3 -180 0 0 -156.25 542.38 L-212.96
						 542.38" class="st17"/>
			<rect v:rectContext="textBkgnd" x="-91.0393" y="530.7" width="16.4921" height="9.59985" class="st15"/>
			<text x="-91.04" y="537.9" class="st16" v:langID="1033"><v:paragraph v:horizAlign="1"/><v:tabList/>GPIO</text>		</g>
		<g id="shape115-152" v:mID="115" v:groupContext="shape" v:layerMember="0" transform="translate(448.418,-185.625)">
			<title>Dynamic connector.115</title>
			<desc>I2C</desc>
			<v:textBlock v:margins="rect(4,4,4,4)"/>
			<v:textRect cx="64.5817" cy="442.125" width="40" height="17.6036"/>
			<path d="M0 612 L0 433.13 L185.33 433.13 A3 3 0 0 1 191.33 433.13 L249.93 433.13 L249.93 453.97" class="st17"/>
			<rect v:rectContext="textBkgnd" x="60.0889" y="436.923" width="8.98572" height="10.0017" class="st15"/>
			<text x="60.09" y="444.53" class="st16" v:langID="1033"><v:paragraph v:horizAlign="1"/><v:tabList/>I<tspan dy="0.049em"
						class="st19" v:baseFontSize="8">2</tspan><tspan dy="-0.033em" class="st7">C</tspan></text>		</g>
		<g id="shape116-161" v:mID="116" v:groupContext="shape" v:layerMember="0" transform="translate(448.418,-185.625)">
			<title>Dynamic connector.116</title>
			<desc>User Input</desc>
			<v:textBlock v:margins="rect(4,4,4,4)"/>
			<v:textRect cx="-87.2933" cy="483.75" width="43.96" height="17.6036"/>
			<path d="M0 606.2 L0 605.84 L0 489.25 L-47.42 489.25 A3 3 -180 0 0 -53.42 489.25 L-150.25 489.25 A3 3 -180 0 0 -156.25
						 489.25 L-271.26 489.25 L-271.26 496.59" class="st20"/>
			<rect v:rectContext="textBkgnd" x="-104.365" y="478.95" width="34.1444" height="9.59985" class="st15"/>
			<text x="-104.37" y="486.15" class="st16" v:langID="1033"><v:paragraph v:horizAlign="1"/><v:tabList/>User Input</text>		</g>
		<g id="group117-172" transform="translate(213.75,-442.36)" v:mID="117" v:groupContext="group">
			<title>Sheet.117</title>
			<g id="shape118-173" v:mID="118" v:groupContext="shape">
				<title>Rectangle</title>
				<v:userDefs>
					<v:ud v:nameU="visVersion" v:val="VT0(15):26"/>
				</v:userDefs>
				<path d="M0 612 L400.5 612 L400.5 478.36 L0 478.36 L0 612 Z" class="st1"/>
			</g>
		</g>
		<g id="group139-175" transform="translate(331.627,-512.028)" v:mID="139" v:groupContext="group">
			<title>Sheet.139</title>
			<desc>Voltage Regulation Power Conditioning</desc>
			<g id="shape140-176" v:mID="140" v:groupContext="shape">
				<title>Rectangle</title>
				<v:userDefs>
					<v:ud v:nameU="visVersion" v:val="VT0(15):26"/>
				</v:userDefs>
				<rect x="0" y="557.028" width="164.745" height="54.9724" class="st12"/>
			</g>
			<g id="shape139-178" v:mID="139" v:groupContext="groupContent">
				<v:textBlock v:margins="rect(4,4,4,4)"/>
				<v:textRect cx="82.3725" cy="584.514" width="164.75" height="54.9724"/>
				<text x="36.2" y="580.91" class="st3" v:langID="1033"><v:paragraph v:horizAlign="1"/><v:tabList/>Voltage Regulation<v:lf/><tspan
							x="34.28" dy="1.2em" class="st7">Power Conditioning</tspan></text>			</g>
		</g>
		<g id="group141-181" transform="translate(241.425,-447.71)" v:mID="141" v:groupContext="group">
			<title>Sheet.141</title>
			<desc>Power Delivery</desc>
			<g id="shape142-182" v:mID="142" v:groupContext="shape">
				<title>Rectangle</title>
				<v:userDefs>
					<v:ud v:nameU="visVersion" v:val="VT0(15):26"/>
				</v:userDefs>
				<rect x="0" y="571.245" width="352.575" height="40.7553" class="st12"/>
			</g>
			<g id="shape141-184" v:mID="141" v:groupContext="groupContent">
				<v:textBlock v:margins="rect(4,4,4,4)"/>
				<v:textRect cx="176.288" cy="591.622" width="352.58" height="40.7553"/>
				<text x="139.37" y="595.22" class="st3" v:langID="1033"><v:paragraph v:horizAlign="1"/><v:tabList/>Power Delivery</text>			</g>
		</g>
		<g id="shape143-186" v:mID="143" v:groupContext="shape" v:layerMember="0" transform="translate(331.627,-539.514)">
			<title>Dynamic connector.143</title>
			<desc>5V</desc>
			<v:textBlock v:margins="rect(4,4,4,4)"/>
			<v:textRect cx="-50.3775" cy="604.764" width="40" height="17.6036"/>
			<path d="M0 612 L-61.63 612 L-61.63 656.01" class="st8"/>
			<rect v:rectContext="textBkgnd" x="-54.6744" y="599.964" width="8.59378" height="9.59985" class="st15"/>
			<text x="-54.67" y="607.16" class="st16" v:langID="1033"><v:paragraph v:horizAlign="1"/><v:tabList/>5V</text>		</g>
		<g id="shape144-193" v:mID="144" v:groupContext="shape" v:layerMember="0" transform="translate(496.373,-539.514)">
			<title>Dynamic connector.144</title>
			<desc>7.5V</desc>
			<v:textBlock v:margins="rect(4,4,4,4)"/>
			<v:textRect cx="61.6275" cy="604.764" width="40" height="17.6036"/>
			<path d="M0 612 L70.63 612 L70.63 656.01" class="st8"/>
			<rect v:rectContext="textBkgnd" x="54.2934" y="599.964" width="14.6681" height="9.59985" class="st15"/>
			<text x="54.29" y="607.16" class="st16" v:langID="1033"><v:paragraph v:horizAlign="1"/><v:tabList/>7.5V</text>		</g>
		<g id="shape147-200" v:mID="147" v:groupContext="shape" v:layerMember="0" transform="translate(270,-447.71)">
			<title>Dynamic connector.147</title>
			<desc>5V</desc>
			<v:textBlock v:margins="rect(4,4,4,4)"/>
			<v:textRect cx="135" cy="672.71" width="40" height="17.6036"/>
			<path d="M0 612 L0 625.5 L127.99 625.5 L127.99 851.3" class="st8"/>
			<rect v:rectContext="textBkgnd" x="130.703" y="667.91" width="8.59378" height="9.59985" class="st15"/>
			<text x="130.7" y="675.11" class="st16" v:langID="1033"><v:paragraph v:horizAlign="1"/><v:tabList/>5V</text>		</g>
		<g id="shape149-207" v:mID="149" v:groupContext="shape" v:layerMember="0" transform="translate(568.125,-447.71)">
			<title>Dynamic connector.149</title>
			<desc>7.5V</desc>
			<v:textBlock v:margins="rect(4,4,4,4)"/>
			<v:textRect cx="79.875" cy="652.46" width="40" height="17.6036"/>
			<path d="M0 612 L0 630.55 L68.62 630.55 L68.62 746.96 L59.91 746.96" class="st8"/>
			<rect v:rectContext="textBkgnd" x="72.5409" y="647.66" width="14.6681" height="9.59985" class="st15"/>
			<text x="72.54" y="654.86" class="st16" v:langID="1033"><v:paragraph v:horizAlign="1"/><v:tabList/>7.5V</text>		</g>
		<g id="shape154-214" v:mID="154" v:groupContext="shape" transform="translate(33.75,-515.25)">
			<title>Square</title>
			<desc>12-24VDC Jack</desc>
			<v:userDefs>
				<v:ud v:nameU="visVersion" v:val="VT0(15):26"/>
			</v:userDefs>
			<v:textBlock v:margins="rect(4,4,4,4)"/>
			<v:textRect cx="34.875" cy="577.125" width="69.75" height="69.75"/>
			<rect x="0" y="542.25" width="69.75" height="69.75" class="st21"/>
			<text x="5.12" y="580.13" class="st22" v:langID="1033"><v:paragraph v:horizAlign="1"/><v:tabList/>12-24VDC Jack</text>		</g>
		<g id="shape155-217" v:mID="155" v:groupContext="shape" transform="translate(33.75,-433.213)">
			<title>Square.155</title>
			<desc>SMA Antenna Connector</desc>
			<v:userDefs>
				<v:ud v:nameU="visVersion" v:val="VT0(15):26"/>
			</v:userDefs>
			<v:textBlock v:margins="rect(4,4,4,4)"/>
			<v:textRect cx="34.875" cy="577.125" width="69.75" height="69.75"/>
			<rect x="0" y="542.25" width="69.75" height="69.75" class="st21"/>
			<text x="6.95" y="574.13" class="st22" v:langID="1033"><v:paragraph v:horizAlign="1"/><v:tabList/>SMA Antenna <tspan
						x="13.66" dy="1.2em" class="st7">Connector</tspan></text>		</g>
		<g id="shape156-221" v:mID="156" v:groupContext="shape" v:layerMember="0" transform="translate(308.673,-160.875)">
			<title>Dynamic connector.156</title>
			<desc>Antenna Line</desc>
			<v:textBlock v:margins="rect(4,4,4,4)"/>
			<v:textRect cx="-56.6732" cy="354.375" width="52.74" height="17.6036"/>
			<path d="M-2.28 612 L-2.64 612 L-13.5 612 L-13.5 345.37 L-174.07 345.37 L-174.07 304.79 L-205.17 304.79" class="st23"/>
			<rect v:rectContext="textBkgnd" x="-78.1337" y="349.575" width="42.9211" height="9.59985" class="st15"/>
			<text x="-78.13" y="356.78" class="st16" v:langID="1033"><v:paragraph v:horizAlign="1"/><v:tabList/>Antenna Line</text>		</g>
		<g id="shape157-229" v:mID="157" v:groupContext="shape" v:layerMember="0" transform="translate(103.5,-549.563)">
			<title>Dynamic connector.157</title>
			<desc>12-24VDC</desc>
			<v:textBlock v:margins="rect(4,4,4,4)"/>
			<v:textRect cx="82.125" cy="583.313" width="42.21" height="17.6036"/>
			<path d="M0 611.44 L53.66 611.44 L53.66 576.56 L310.5 576.56 L310.5 587.52" class="st8"/>
			<rect v:rectContext="textBkgnd" x="65.9277" y="578.513" width="32.3948" height="9.59985" class="st15"/>
			<text x="65.93" y="585.71" class="st16" v:langID="1033"><v:paragraph v:horizAlign="1"/><v:tabList/>12-24VDC</text>		</g>
	</g>
</svg>
